<svg xmlns="http://www.w3.org/2000/svg" width="133" height="87.216" viewBox="0 0 133 87.216">
    <defs>
        <clipPath id="dd8i9w1nra">
            <path data-name="Rectangle 2022" style="fill:#fff" d="M0 0h133v87.216H0z"/>
        </clipPath>
    </defs>
    <g data-name="Groupe 4847" style="clip-path:url(#dd8i9w1nra)">
        <path data-name="Tracé 6374" d="M114.731 36.089c-8.961 0-16.406 6.329-16.406 16.084s7.445 16.085 16.406 16.085 16.406-6.329 16.406-16.085-7.445-16.084-16.406-16.084m0 27.086c-5.552 0-10.165-4.174-10.165-11s4.613-11 10.165-11 10.165 4.174 10.165 11-4.613 11-10.165 11" transform="translate(-61.517 -22.579)" style="fill:#fff"/>
        <path data-name="Tracé 6375" d="M25.761 38.324v27.35h-.9l-12.38-27.35H0v30.5h6.241V41.469h.9l12.384 27.35H32v-30.5z" transform="translate(0 -23.977)" style="fill:#fff"/>
        <path data-name="Tracé 6376" d="M219.51 38.324c-2.85 3.7-5.789 10.364-8.666 16.548l-4.891 10.8h-.9V38.324h-6.241v30.5H211.3l6.31-13.947a110.258 110.258 0 0 1 5.8-11.3 33.928 33.928 0 0 1 3.757-5.244z" transform="translate(-124.39 -23.978)" style="fill:#fff"/>
        <path data-name="Tracé 6377" d="M302.495 47.417c-1.647-7.513-7.436-11.327-14.582-11.327-8.961 0-16.405 6.329-16.405 16.084s7.444 16.084 16.405 16.084a16.49 16.49 0 0 0 12.8-5.7c.142-.17.281-.342.416-.518l-4.615-3.715a9.773 9.773 0 0 1-8.6 4.853c-5.045 0-9.314-3.447-10.052-9.2h24.917a25.9 25.9 0 0 0-.283-6.558m-24.483 2.054a9.9 9.9 0 0 1 9.9-8.3c5.708 0 8.557 3.9 8.557 8.3z" transform="translate(-169.869 -22.579)" style="fill:#fff"/>
        <path data-name="Tracé 6378" d="M293.893 0a34.8 34.8 0 0 0-21.757 7.568l2.415 5.332c5.023-4.616 11.609-7 19.342-7.223z" transform="translate(-170.263)" style="fill:#fff"/>
        <path data-name="Tracé 6379" d="M0 152.735h4.332c2.056 0 3.3 1.248 3.3 2.716a2.207 2.207 0 0 1-.7 1.674 2.344 2.344 0 0 1-.691.455 2.834 2.834 0 0 1 .955.5 2.488 2.488 0 0 1 .954 2c0 1.6-1.336 2.937-3.524 2.937H0zm4.185 3.965a1.037 1.037 0 1 0 0-2.056H2.2v2.056zm.294 4.4a1.256 1.256 0 1 0 0-2.5H2.2v2.5z" transform="translate(-.001 -95.559)" style="fill:#fff"/>
        <path data-name="Tracé 6380" d="M26.74 152.539a1.125 1.125 0 0 1 1.131 1.1 1.138 1.138 0 0 1-1.145 1.1 1.125 1.125 0 0 1-1.131-1.1 1.138 1.138 0 0 1 1.145-1.1m-1 3.157h1.983v7.195h-1.982z" transform="translate(-16.014 -95.437)" style="fill:#fff"/>
        <path data-name="Tracé 6381" d="M41.65 166.893a3.7 3.7 0 0 1-.793.587 4.652 4.652 0 0 1-2.29.588 3.745 3.745 0 1 1-.074-7.489 3.6 3.6 0 0 1 3.6 3.6 5.785 5.785 0 0 1-.044.632l-.03.25H36.8a1.848 1.848 0 0 0 1.908 1.248 2.527 2.527 0 0 0 1.424-.4 1.894 1.894 0 0 0 .485-.411zm-1.615-3.3a1.669 1.669 0 0 0-3.23 0z" transform="translate(-21.741 -100.467)" style="fill:#fff"/>
        <path data-name="Tracé 6382" d="M58.044 160.726h1.983v1.028h.073a3.431 3.431 0 0 1 .544-.587 2.446 2.446 0 0 1 1.586-.588 2.736 2.736 0 0 1 2.643 3.01v4.332H62.89v-4.038a1.248 1.248 0 0 0-1.322-1.4 1.525 1.525 0 0 0-1.542 1.616v3.818h-1.982z" transform="translate(-36.315 -100.467)" style="fill:#fff"/>
        <path data-name="Rectangle 2021" transform="translate(33.622 57.176)" style="fill:#fff" d="M0 0h1.982v10.278H0z"/>
        <path data-name="Tracé 6383" d="M102.643 160.58a3.745 3.745 0 1 1-3.818 3.744 3.776 3.776 0 0 1 3.818-3.744m1.835 3.744a1.837 1.837 0 1 0-1.835 1.909 1.836 1.836 0 0 0 1.835-1.909" transform="translate(-61.83 -100.467)" style="fill:#fff"/>
        <path data-name="Tracé 6384" d="M123.226 168.288a3.023 3.023 0 0 0 .514.441 2.536 2.536 0 0 0 1.4.441 1.871 1.871 0 0 0 1.909-1.983v-.587h-.073a2.855 2.855 0 0 1-.528.587 2.58 2.58 0 0 1-1.674.587 3.64 3.64 0 0 1 0-7.195 2.578 2.578 0 0 1 1.674.588 2.855 2.855 0 0 1 .528.587h.073v-1.028h1.982v6.46a3.722 3.722 0 0 1-3.896 3.814 4.077 4.077 0 0 1-2.379-.734 3.375 3.375 0 0 1-.778-.734zm3.818-4.111a1.69 1.69 0 1 0-1.689 1.762 1.671 1.671 0 0 0 1.689-1.762" transform="translate(-76.132 -100.467)" style="fill:#fff"/>
        <path data-name="Tracé 6385" d="M151.811 166.893a3.7 3.7 0 0 1-.793.587 4.652 4.652 0 0 1-2.29.588 3.745 3.745 0 1 1-.074-7.489 3.6 3.6 0 0 1 3.6 3.6 5.781 5.781 0 0 1-.044.632l-.03.25h-5.212a1.848 1.848 0 0 0 1.908 1.248 2.527 2.527 0 0 0 1.424-.4 1.894 1.894 0 0 0 .485-.411zm-1.615-3.3a1.669 1.669 0 0 0-3.23 0z" transform="translate(-90.663 -100.467)" style="fill:#fff"/>
        <path data-name="Tracé 6386" d="M168.2 160.726h1.983v1.028h.073a3.432 3.432 0 0 1 .544-.587 2.446 2.446 0 0 1 1.586-.588h.147v2.129l-.162-.029a3.466 3.466 0 0 0-.5-.044 1.725 1.725 0 0 0-1.689 1.909v3.377H168.2z" transform="translate(-105.237 -100.467)" style="fill:#fff"/>
        <path data-name="Tracé 6387" d="M6.828 211.151a3.165 3.165 0 0 1-.734.734 3.77 3.77 0 0 1-2.276.734 3.745 3.745 0 1 1 0-7.489 3.768 3.768 0 0 1 2.276.735 3.157 3.157 0 0 1 .734.734l-1.248 1.248a2.69 2.69 0 0 0-.469-.44 2.227 2.227 0 0 0-1.292-.441 1.91 1.91 0 0 0 0 3.818 2.225 2.225 0 0 0 1.292-.441 2.673 2.673 0 0 0 .469-.44z" transform="translate(0 -128.34)" style="fill:#fff"/>
        <path data-name="Tracé 6388" d="M26.659 211.445a3.7 3.7 0 0 1-.793.587 4.651 4.651 0 0 1-2.29.588 3.745 3.745 0 1 1-.074-7.489 3.6 3.6 0 0 1 3.6 3.6 5.785 5.785 0 0 1-.044.632l-.03.25h-5.214a1.848 1.848 0 0 0 1.908 1.248 2.527 2.527 0 0 0 1.424-.4 1.894 1.894 0 0 0 .485-.411zm-1.615-3.3a1.669 1.669 0 0 0-3.23 0z" transform="translate(-12.362 -128.341)" style="fill:#fff"/>
        <path data-name="Tracé 6389" d="M42.837 205.524h1.983v4.038a1.248 1.248 0 0 0 1.321 1.395 1.524 1.524 0 0 0 1.542-1.615v-3.818h1.982v7.195h-1.982v-1.028h-.073a3.433 3.433 0 0 1-.544.587 2.481 2.481 0 0 1-1.586.588 2.736 2.736 0 0 1-2.643-3.01z" transform="translate(-26.801 -128.587)" style="fill:#fff"/>
        <path data-name="Tracé 6390" d="m65.941 209.048-2.423-3.524h2.276l1.366 2.2h.058l1.366-2.2h2.276l-2.423 3.524 2.57 3.671H68.73l-1.512-2.35h-.058l-1.513 2.35h-2.276z" transform="translate(-39.648 -128.587)" style="fill:#fff"/>
        <path data-name="Tracé 6391" d="M98.76 211.446h-.073a2.639 2.639 0 0 1-.558.587 2.818 2.818 0 0 1-1.718.587 3.785 3.785 0 0 1 0-7.488 2.818 2.818 0 0 1 1.718.587 2.648 2.648 0 0 1 .558.587h.073v-1.028h1.982v10.278H98.76zm.073-2.57A1.837 1.837 0 1 0 97 210.785a1.836 1.836 0 0 0 1.835-1.909" transform="translate(-58.298 -128.342)" style="fill:#fff"/>
        <path data-name="Tracé 6392" d="M118.1 205.524h1.983v4.038a1.248 1.248 0 0 0 1.321 1.395 1.524 1.524 0 0 0 1.542-1.615v-3.818h1.982v7.195h-1.982v-1.028h-.073a3.432 3.432 0 0 1-.544.587 2.482 2.482 0 0 1-1.586.588 2.736 2.736 0 0 1-2.643-3.01z" transform="translate(-73.89 -128.587)" style="fill:#fff"/>
        <path data-name="Tracé 6393" d="M141.861 197.091a1.125 1.125 0 0 1 1.131 1.1 1.138 1.138 0 0 1-1.145 1.1 1.125 1.125 0 0 1-1.131-1.1 1.138 1.138 0 0 1 1.145-1.1m-1 3.157h1.983v7.195h-1.983z" transform="translate(-88.039 -123.311)" style="fill:#fff"/>
        <path data-name="Tracé 6394" d="M158.953 210.05a2.347 2.347 0 0 0 .514.411 2.536 2.536 0 0 0 1.395.4c.661 0 .881-.22.881-.514 0-.808-3.67-.661-3.67-3.01 0-1.174 1.028-2.2 2.863-2.2a4.018 4.018 0 0 1 2.085.558 3.444 3.444 0 0 1 .7.543l-1.175 1.248a2.42 2.42 0 0 0-.426-.294 2.361 2.361 0 0 0-1.19-.293c-.514 0-.734.22-.734.44 0 .808 3.67.661 3.67 3.01 0 1.233-1.028 2.276-3.01 2.276a4.2 4.2 0 0 1-2.291-.661 3.533 3.533 0 0 1-.793-.66z" transform="translate(-98.714 -128.341)" style="fill:#fff"/>
        <path data-name="Tracé 6395" d="m176.759 196.5 1.689.954-2.056 3.157-1.175-.661z" transform="translate(-109.625 -122.942)" style="fill:#fff"/>
        <path data-name="Tracé 6396" d="M189.913 211.445a3.7 3.7 0 0 1-.793.587 4.651 4.651 0 0 1-2.29.588 3.745 3.745 0 1 1-.074-7.489 3.6 3.6 0 0 1 3.6 3.6 5.78 5.78 0 0 1-.044.632l-.03.25h-5.212a1.848 1.848 0 0 0 1.908 1.248 2.529 2.529 0 0 0 1.425-.4 1.9 1.9 0 0 0 .484-.411zm-1.615-3.3a1.669 1.669 0 0 0-3.23 0z" transform="translate(-114.502 -128.341)" style="fill:#fff"/>
        <path data-name="Tracé 6397" d="M206.306 205.278h1.983v1.028h.073a3.428 3.428 0 0 1 .544-.587 2.448 2.448 0 0 1 1.586-.588 2.736 2.736 0 0 1 2.643 3.01v4.332h-1.982v-4.038a1.248 1.248 0 0 0-1.322-1.4 1.525 1.525 0 0 0-1.542 1.616v3.818h-1.983z" transform="translate(-129.076 -128.341)" style="fill:#fff"/>
        <path data-name="Tracé 6398" d="M229.629 212.84a3.024 3.024 0 0 0 .514.441 2.536 2.536 0 0 0 1.4.441 1.871 1.871 0 0 0 1.909-1.983v-.587h-.073a2.854 2.854 0 0 1-.528.587 2.58 2.58 0 0 1-1.674.587 3.64 3.64 0 0 1 0-7.195 2.582 2.582 0 0 1 1.674.588 2.854 2.854 0 0 1 .528.587h.073v-1.028h1.982v6.46a3.722 3.722 0 0 1-3.891 3.818 4.08 4.08 0 0 1-2.379-.734 3.384 3.384 0 0 1-.778-.734zm3.818-4.111a1.69 1.69 0 1 0-1.689 1.762 1.671 1.671 0 0 0 1.689-1.762" transform="translate(-142.703 -128.341)" style="fill:#fff"/>
        <path data-name="Tracé 6399" d="M255.811 211.592h-.073a3 3 0 0 1-.544.514 2.549 2.549 0 0 1-1.586.514 2.047 2.047 0 0 1-2.2-2.056 2.327 2.327 0 0 1 2.129-2.306l2.276-.411a1.15 1.15 0 0 0-1.248-.955 1.894 1.894 0 0 0-1.19.411 2.19 2.19 0 0 0-.426.4l-1.175-1.175a3.88 3.88 0 0 1 2.937-1.395 2.888 2.888 0 0 1 3.083 2.864v4.478h-1.982zm0-2.349-1.615.294c-.514.1-.807.367-.807.734 0 .455.293.734.881.734a1.525 1.525 0 0 0 1.542-1.615z" transform="translate(-157.293 -128.341)" style="fill:#fff"/>
        <path data-name="Tracé 6400" d="M273.552 212.84a3.024 3.024 0 0 0 .514.441 2.536 2.536 0 0 0 1.4.441 1.871 1.871 0 0 0 1.909-1.983v-.587h-.075a2.854 2.854 0 0 1-.528.587 2.58 2.58 0 0 1-1.674.587 3.64 3.64 0 0 1 0-7.195 2.582 2.582 0 0 1 1.674.588 2.854 2.854 0 0 1 .528.587h.073v-1.028h1.982v6.46a3.722 3.722 0 0 1-3.891 3.818 4.08 4.08 0 0 1-2.379-.734 3.385 3.385 0 0 1-.778-.734zm3.818-4.111a1.69 1.69 0 1 0-1.689 1.762 1.671 1.671 0 0 0 1.689-1.762" transform="translate(-170.184 -128.341)" style="fill:#fff"/>
        <path data-name="Tracé 6401" d="M302.137 211.445a3.7 3.7 0 0 1-.793.587 4.651 4.651 0 0 1-2.29.588 3.745 3.745 0 1 1-.074-7.489 3.6 3.6 0 0 1 3.6 3.6 5.8 5.8 0 0 1-.044.632l-.03.25h-5.213a1.849 1.849 0 0 0 1.909 1.248 2.527 2.527 0 0 0 1.424-.4 1.894 1.894 0 0 0 .485-.411zm-1.615-3.3a1.669 1.669 0 0 0-3.231 0z" transform="translate(-184.715 -128.341)" style="fill:#fff"/>
        <path data-name="Tracé 6402" d="M318.53 205.278h1.983v1.028h.073a3.429 3.429 0 0 1 .544-.587 2.448 2.448 0 0 1 1.586-.588 2.736 2.736 0 0 1 2.643 3.01v4.332h-1.982v-4.038a1.248 1.248 0 0 0-1.322-1.4 1.525 1.525 0 0 0-1.542 1.616v3.818h-1.983z" transform="translate(-199.289 -128.341)" style="fill:#fff"/>
        <path data-name="Tracé 6403" d="M340.7 204.071h-1.248v-1.835h.661c.544 0 .808-.294.808-.881v-1.321h1.762v2.2h1.617v1.835h-1.615v2.423a.91.91 0 0 0 .954 1.028 2.169 2.169 0 0 0 .573-.074 1.1 1.1 0 0 0 .235-.073v1.835c-.118.044-.25.073-.382.117a4.062 4.062 0 0 1-.94.1 2.334 2.334 0 0 1-2.422-2.643z" transform="translate(-212.379 -125.151)" style="fill:#fff"/>
    </g>
</svg>
